<svg xmlns="http://www.w3.org/2000/svg" viewBox="0 0 512 512"><defs><style>.cls-1{fill:#0061bf;}</style></defs><title>book_finder</title><g id="Layer_2" data-name="Layer 2"><path class="cls-1" d="M30.5,321.74H156.58a108.75,108.75,0,0,0,13.72,16.91,112,112,0,0,0,129.07,21.46l5.31,5.49a18.29,18.29,0,0,0,13.07,5.19h0a25.47,25.47,0,0,0,9.61-2.11l74.69,74.9c-3.7,7.89-3.11,16.56,2.27,22l9.58,9.59a7,7,0,0,0,9.91,0l0,0,39.85-40a7,7,0,0,0,0-9.89l-9.58-9.62a17.67,17.67,0,0,0-12.62-5.23,20.46,20.46,0,0,0-9,2.13l-74.21-74.68a21.46,21.46,0,0,0,.39-16.08H481.49a10.71,10.71,0,0,0,11-10.42,11.24,11.24,0,0,0-.14-2.09L459.83,112.52a10.77,10.77,0,0,0-10.87-9H418.83l-9.72-59.22a11,11,0,0,0-12.32-9.22c-11.28,1.52-51,8.6-89.07,36.5-20.18,14.79-41.52,37.77-51.45,49-2.72-3.4-6.79-8.38-11.65-13.92-13.5-15.38-26-27.21-37-35.14-41-29.4-81.36-35.49-92.75-36.66a11.18,11.18,0,0,0-12,9.36l-9.74,59.33H63a10.81,10.81,0,0,0-10.86,9L19.64,309.42a10.46,10.46,0,0,0,2.47,8.67A10.74,10.74,0,0,0,30.5,321.74ZM180.23,329a98.88,98.88,0,0,1,0-139.32,97.83,97.83,0,0,1,138.35-.37l.37.37A98.9,98.9,0,0,1,319,329a97.83,97.83,0,0,1-138.35.38Zm137.52,27.54a4.78,4.78,0,0,1-3.15-.9l-2.71-2.72A113.28,113.28,0,0,0,342,323l2.5,2.51c2.1,2.1,2.36,6.39-.88,9.64l-18,18.05a11.77,11.77,0,0,1-7.92,3.33Zm93,75.92L338.63,360l10.91-10.95,72.14,72.4Zm30.71-8a3.63,3.63,0,0,1,2.69,1.11l4.66,4.67-30,30.08-4.61-4.63c-1.34-1.34-.5-6.32,3.34-10.19l18-18.05a8.9,8.9,0,0,1,5.91-3Zm4.93-306.83L478,307.73H350.6a109.56,109.56,0,0,0,10.63-38.89c20.67-10.12,54.36-14,70-14.71a11,11,0,0,0,8.06-4,10.53,10.53,0,0,0,2.31-8.51L421.13,117.55ZM316,82.85a190.4,190.4,0,0,1,79.76-33.53l31.47,191.11c-10.32.69-41.74,3.52-65.72,13.17a112.26,112.26,0,0,0-32.63-73.86A111.14,111.14,0,0,0,263,147.58V134.13C269.51,126.61,294,99,316,82.85ZM116.24,49.12c13.31,1.72,47.87,8.44,83.2,33.77,21.32,15.29,44,43.9,49.55,51.08v12.81A112.18,112.18,0,0,0,138,248.5c-20-5.35-41.76-7.33-53.31-8ZM65.58,117.55H90.83L70.36,241.67a10.79,10.79,0,0,0,2.29,8.61,11,11,0,0,0,8,4c10.25.52,35.28,2.15,56.92,8.44a110.92,110.92,0,0,0,11,45H34Z"/><path class="cls-1" d="M309.24,199.45a84.41,84.41,0,0,0-119.37-.31l-.31.31a85.21,85.21,0,0,0,0,120.06,83.93,83.93,0,0,0,59.84,24.88h0a84,84,0,0,0,59.84-24.88A85.23,85.23,0,0,0,309.24,199.45Zm-9.93,110.17a70.38,70.38,0,0,1-99.55.27l-.28-.27a71.18,71.18,0,0,1,0-100.28,70.41,70.41,0,0,1,99.56-.27l.27.27A71.18,71.18,0,0,1,299.31,309.62Z"/></g></svg>