<svg id="Layer_1" data-name="Layer 1" xmlns="http://www.w3.org/2000/svg" viewBox="0 0 512 512"><defs><style>.cls-1,.cls-2{fill:#0061bf;}.cls-2,.cls-3{font-size:75px;font-family:Roboto-Bold, Roboto;font-weight:700;}</style></defs><title>book_finder</title><path class="cls-1" d="M98.94,253.16h87.82a75.59,75.59,0,0,0,9.55,11.78,78,78,0,0,0,89.9,14.95l3.69,3.82a12.72,12.72,0,0,0,9.11,3.61h0a17.57,17.57,0,0,0,6.69-1.46l52,52.16c-2.58,5.49-2.16,11.53,1.58,15.29L366,360a4.88,4.88,0,0,0,6.9,0h0l27.76-27.87a4.89,4.89,0,0,0,0-6.89l-6.67-6.7a12.37,12.37,0,0,0-8.8-3.64,14.07,14.07,0,0,0-6.23,1.49l-51.69-52a15,15,0,0,0,.28-11.2h85.51a7.46,7.46,0,0,0,7.67-7.25,7.91,7.91,0,0,0-.1-1.46L398,107.45a7.49,7.49,0,0,0-7.57-6.26h-21L362.64,60a7.69,7.69,0,0,0-8.59-6.42,141.87,141.87,0,0,0-62,25.41c-14,10.31-28.92,26.31-35.83,34.11-1.9-2.37-4.73-5.83-8.12-9.69-9.4-10.71-18.07-19-25.78-24.48-28.56-20.48-56.66-24.72-64.6-25.53a7.79,7.79,0,0,0-8.34,6.52l-6.78,41.32h-21a7.51,7.51,0,0,0-7.56,6.28L91.38,244.58a7.27,7.27,0,0,0,1.72,6A7.46,7.46,0,0,0,98.94,253.16Zm104.29,5a68.85,68.85,0,0,1,0-97,68.13,68.13,0,0,1,96.35-.26c.09.09.18.17.26.26a68.87,68.87,0,0,1,0,97,68.13,68.13,0,0,1-96.35.27ZM299,277.36a3.32,3.32,0,0,1-2.2-.62l-1.88-1.9a79.07,79.07,0,0,0,21-20.83l1.74,1.75c1.46,1.47,1.64,4.45-.61,6.72l-12.53,12.57a8.14,8.14,0,0,1-5.51,2.31Zm64.78,52.88-50.24-50.43,7.6-7.62,50.24,50.43Zm21.39-5.59a2.51,2.51,0,0,1,1.88.77l3.24,3.26-20.87,20.95-3.21-3.23c-.94-.94-.35-4.4,2.32-7.1l12.53-12.57a6.21,6.21,0,0,1,4.11-2.08ZM388.62,111l22,132.45h-88.7a76.27,76.27,0,0,0,7.4-27.08c14.4-7,37.86-9.76,48.76-10.25a7.63,7.63,0,0,0,5.61-2.79,7.36,7.36,0,0,0,1.61-5.93L371,111ZM297.79,86.78a132.7,132.7,0,0,1,55.55-23.35l21.92,133.1c-7.19.48-29.07,2.46-45.78,9.17a78.19,78.19,0,0,0-22.72-51.44,77.41,77.41,0,0,0-45.88-22.4v-9.37C265.41,117.26,282.44,98,297.79,86.78ZM158.66,63.29c9.27,1.19,33.34,5.88,58,23.52,14.85,10.65,30.65,30.57,34.51,35.58v8.92a78.12,78.12,0,0,0-77.28,70.84c-14-3.73-29.08-5.1-37.13-5.6ZM123.38,111H141L126.7,197.4a7.53,7.53,0,0,0,1.6,6,7.66,7.66,0,0,0,5.59,2.81c7.13.36,24.57,1.5,39.64,5.88a77.33,77.33,0,0,0,7.65,31.32H101.41Z"/><path class="cls-1" d="M293.08,168a58.79,58.79,0,0,0-83.14-.21l-.22.21a59.37,59.37,0,0,0,0,83.62,58.52,58.52,0,0,0,41.68,17.33h0a58.5,58.5,0,0,0,41.68-17.33A59.35,59.35,0,0,0,293.08,168Zm-6.91,76.73a49,49,0,0,1-69.34.19c-.07-.06-.13-.13-.19-.19a49.58,49.58,0,0,1,0-69.84,49,49,0,0,1,69.34-.19l.19.19A49.58,49.58,0,0,1,286.17,244.72Z"/><text class="cls-2" transform="translate(58.91 436.25)">Book</text><text class="cls-3" transform="translate(244.64 436.25)">Finder</text></svg>